Coordinates
version=1
nRows=8
nColumns=46
inDegrees=yes

Units are S.I. units (second, meters, Newtons, ...)
Angles are in degrees.

endheader
time	pelvis_tilt	pelvis_list	pelvis_rotation	pelvis_tx	pelvis_ty	pelvis_tz	bb_angle	bb_tx	bb_ty	bb_tz	hip_flexion_r	hip_adduction_r	hip_rotation_r	knee_angle_r	knee_angle_r_beta	ankle_angle_r	subtalar_angle_r	mtp_angle_r	crank_angle_r	hip_flexion_l	hip_adduction_l	hip_rotation_l	knee_angle_l	knee_angle_l_beta	ankle_angle_l	subtalar_angle_l	mtp_angle_l	crank_angle_l	lumbar_extension	lumbar_bending	lumbar_rotation	arm_flex_r	arm_add_r	arm_rot_r	elbow_flex_r	pro_sup_r	wrist_flex_r	wrist_dev_r	arm_flex_l	arm_add_l	arm_rot_l	elbow_flex_l	pro_sup_l	wrist_flex_l	wrist_dev_l
      7.50500000	    -32.79538983	     -4.70715980	     -2.58830844	      0.43147236	      1.17074267	     -0.25261091	      0.00000000	      0.50000000	      0.00000000	      0.25000000	     65.09712210	     -2.93217119	     -5.15830024	     95.87738561	      1.67337606	      0.66752576	     -5.25620990	      0.00000000	      0.00000000	     47.59697749	    -11.43858234	     -0.67167449	     33.18832201	      0.57924549	     -8.06375766	     -0.69390681	      0.00000000	      0.00000000	    -61.01364876	      3.48611877	     -4.54439865	     40.50994245	    -21.26166859	     25.98772064	    103.49989518	     49.88233700	      0.00000000	      0.00000000	      9.82377404	    -38.01550838	     -4.52069666	    115.17978582	     53.52789847	      0.00000000	      0.00000000
      7.51000000	    -32.77472756	     -5.09260157	     -3.36672841	      0.43162551	      1.16968914	     -0.25251870	      0.00000000	      0.50000000	      0.00000000	      0.25000000	     66.42287490	     -2.17493839	     -5.01674226	     97.55944490	      1.70273353	      2.00477459	     -5.02976432	      0.00000000	      0.00000000	     45.90023452	    -12.35499995	     -1.66698686	     31.23140314	      0.54509081	     -8.90753591	      0.08108860	      0.00000000	      0.00000000	    -60.88142070	      3.37652691	     -3.93875870	     40.87194392	    -21.62791158	     26.61858090	    103.44783650	     49.93341120	      0.00000000	      0.00000000	      9.33215333	    -37.71495851	     -4.65710170	    115.10071119	     53.51178544	      0.00000000	      0.00000000
      7.51500000	    -32.66298355	     -5.38188576	     -4.22979746	      0.43194054	      1.16882969	     -0.25220665	      0.00000000	      0.50000000	      0.00000000	      0.25000000	     67.65539947	     -1.35202282	     -4.78784504	     99.09481991	      1.72953088	      2.53711274	     -4.69080744	      0.00000000	      0.00000000	     44.10398539	    -13.26887639	     -2.98528674	     29.44157523	      0.51385242	     -9.51776948	      1.00770950	      0.00000000	      0.00000000	    -60.95163854	      3.12681086	     -3.47901847	     41.44515321	    -22.05491510	     27.62451218	    103.36694567	     50.01620499	      0.00000000	      0.00000000	      8.86063291	    -37.40637137	     -5.00786408	    115.10216247	     53.49264603	      0.00000000	      0.00000000
      7.52000000	    -32.62726139	     -5.70406679	     -5.02832128	      0.43215337	      1.16786290	     -0.25223630	      0.00000000	      0.50000000	      0.00000000	      0.25000000	     68.95701318	     -0.57143543	     -4.62856230	    100.52309251	      1.75445894	      3.30321079	     -4.43808422	      0.00000000	      0.00000000	     42.45163761	    -14.08649813	     -4.18780748	     27.76590367	      0.48460644	    -10.22723136	      1.79653832	      0.00000000	      0.00000000	    -60.93771372	      2.98534190	     -3.01064019	     41.96041131	    -22.40538183	     28.42851760	    103.25447191	     50.07115866	      0.00000000	      0.00000000	      8.26989478	    -37.04847982	     -5.31196551	    115.14050999	     53.48437552	      0.00000000	      0.00000000
      7.52500000	    -32.74843563	     -6.15889111	     -5.76958622	      0.43232337	      1.16673395	     -0.25204821	      0.00000000	      0.50000000	      0.00000000	      0.25000000	     70.38986015	      0.23164181	     -4.70327955	    101.81277983	      1.77696823	      3.89264579	     -4.24998291	      0.00000000	      0.00000000	     41.06450628	    -14.98608558	     -5.23869110	     26.23889719	      0.45795515	    -11.04371703	      2.63419883	      0.00000000	      0.00000000	    -60.79198432	      2.95262703	     -2.39728779	     42.32105407	    -22.62521712	     28.89667235	    103.20108583	     50.10379584	      0.00000000	      0.00000000	      7.68848573	    -36.73010226	     -5.40333676	    115.13515911	     53.48733964	      0.00000000	      0.00000000
      7.53000000	    -32.57174371	     -6.34483948	     -6.70937554	      0.43283707	      1.16610376	     -0.25150679	      0.00000000	      0.50000000	      0.00000000	      0.25000000	     71.55005650	      1.13425703	     -4.41974023	    103.01428580	      1.79793846	      4.45756825	     -3.96662464	      0.00000000	      0.00000000	     39.28082402	    -15.83381586	     -7.06732418	     24.88339732	      0.43429721	    -11.52763978	      3.87420095	      0.00000000	      0.00000000	    -60.98188746	      2.59006039	     -2.00115008	     42.89439765	    -22.97259566	     29.90419381	    103.12731594	     50.18379844	      0.00000000	      0.00000000	      7.17678941	    -36.30104531	     -5.87742779	    115.27568578	     53.47841458	      0.00000000	      0.00000000
      7.53500000	    -32.57886057	     -6.62084071	     -7.46055528	      0.43304984	      1.16518642	     -0.25113068	      0.00000000	      0.50000000	      0.00000000	      0.25000000	     72.88727510	      1.92352266	     -4.35871422	    104.09742881	      1.81684288	      4.75459230	     -3.90784198	      0.00000000	      0.00000000	     37.85604491	    -16.59797330	     -8.51539525	     23.69418372	      0.41354152	    -12.19548683	      4.89177166	      0.00000000	      0.00000000	    -60.96811307	      2.43723024	     -1.52746852	     43.21386002	    -23.19657639	     30.43178108	    103.08158855	     50.22209548	      0.00000000	      0.00000000	      6.60183473	    -35.87755343	     -6.03843105	    115.30472614	     53.48184726	      0.00000000	      0.00000000
      7.54000000	    -32.47954213	     -6.84553910	     -8.26262598	      0.43338416	      1.16453798	     -0.25061651	      0.00000000	      0.50000000	      0.00000000	      0.25000000	     74.09559239	      2.74929116	     -4.27495432	    105.04026721	      1.83329851	      5.15643931	     -3.81190935	      0.00000000	      0.00000000	     36.32183254	    -17.35212697	    -10.16384897	     22.66104151	      0.39550979	    -12.62936025	      6.18222121	      0.00000000	      0.00000000	    -61.10900475	      2.16777131	     -1.09386208	     43.66393364	    -23.44752771	     31.02160500	    103.13021531	     50.27912028	      0.00000000	      0.00000000	      6.21784152	    -35.42320512	     -6.39540229	    115.38548839	     53.47005828	      0.00000000	      0.00000000
